<svg xmlns="http://www.w3.org/2000/svg" xmlns:xlink="http://www.w3.org/1999/xlink"><symbol id="logo" viewBox="0 0 781 568"><g fill="none">
    <path fill="#1F1E1E" d="M0 0h568v568H0z"/>
    <path d="M154.424 279.9H102.91v-86.579h-.127v-.127H84.676v88.874h69.748V279.9ZM169.749 282.068h70.003V279.9h-51.896v-43.098h40.548v-2.295h-40.548v-39.146h51.896v-2.167h-70.003v88.874ZM273.178 282.068v-86.707c11.093 0 45.266 4.208 47.816 53.682v33.025h18.107v-88.874h-18.107v39.91c-5.483-23.717-22.824-39.91-47.816-39.91h-18.106v88.874h18.106ZM376.307 282.068v-86.707c11.093 0 45.266 4.208 47.816 53.682v33.025h18.107v-88.874h-18.107v39.91c-5.483-23.717-22.824-39.91-47.816-39.91H358.2v88.874h18.107ZM461.329 282.068h18.107v-88.874h-18.107v88.874Z" fill="#fff"/>
    <path fill="#BC3324" d="M312.98 355.483h467.537v162.286H312.98z"/>
    <path d="M420.871 479.129h2.086l11.36-33.036h33.037l12.867 33.036h17.272l-31.298-80.795h-17.504l-27.82 80.795Zm28.979-78.245 16.808 43.238h-31.645l14.837-43.238ZM512.528 398.334v80.795h16.46v-27.936h19.59l18.895 27.82h18.779l-19.938-29.559c11.592-3.014 20.401-10.201 20.401-26.313 0-20.17-14.721-26.546-31.877-26.546-18.083 0-23.3 13.563-25.85 28.632v-26.893h-16.46Zm20.981 16.924c3.13-11.36 11.244-15.996 18.431-16.576 17.272-1.623 17.967 9.389 17.967 24.459 0 24.459-12.983 26.081-24.111 26.081h-16.808s-.464-15.996 4.521-33.964ZM626.282 400.305l.116 78.824h16.461v-78.824h33.268v-1.971h-83.113v1.971h33.268Z" fill="#fff"/>
</g></symbol></svg>